<svg width="12" height="12" viewBox="0 0 12 12" fill="none" xmlns="http://www.w3.org/2000/svg"><g clip-path="url(#a)"><path fill-rule="evenodd" clip-rule="evenodd" d="M6 12A6 6 0 1 0 6 0a6 6 0 0 0 0 12ZM3.645 3.69c-.214.322-.32.64-.32.953 0 .152.067.294.201.424.135.13.3.196.497.196.332 0 .558-.187.677-.56.126-.357.28-.627.462-.81.182-.183.465-.275.85-.275.33 0 .598.09.806.272a.854.854 0 0 1 .313.67c0 .135-.035.26-.103.376-.068.115-.152.22-.252.314s-.261.234-.485.419a8.126 8.126 0 0 0-.61.547 1.82 1.82 0 0 0-.362.535c-.241.934 1.013 1.01 1.302.342.035-.064.089-.135.16-.213.072-.078.168-.168.287-.27.43-.363.729-.622.895-.775.166-.154.31-.336.43-.548.121-.211.181-.457.181-.738 0-.356-.105-.687-.317-.99a2.15 2.15 0 0 0-.9-.721c-.39-.177-.837-.265-1.345-.265-.546 0-1.023.105-1.433.317-.41.211-.72.478-.934.8ZM5.25 9a.75.75 0 1 0 1.5 0 .75.75 0 0 0-1.5 0Z" fill="#89888D"/></g><defs><clipPath id="a"><path fill="#fff" d="M0 0h12v12H0z"/></clipPath></defs></svg>