<svg width="240" height="440" viewBox="0 0 240 440" xmlns="http://www.w3.org/2000/svg"><path fill-rule="evenodd" clip-rule="evenodd" d="m94.734 438.66-53.15-28.911a79.825 79.825 0 0 1-30.345-29.254A79.977 79.977 0 0 1 0 339.844V217.011h109.692v212.711a9.998 9.998 0 0 1-4.859 8.868 9.954 9.954 0 0 1-10.1.07Z" fill="#DEC9F0"/><path fill-rule="evenodd" clip-rule="evenodd" d="M163.789 285.867 23.733 320.82C0 326.862 0 336.848 0 336.848V135.122a99.957 99.957 0 0 1 21.126-61.45 99.707 99.707 0 0 1 54.412-35.418L226.912.306a9.958 9.958 0 0 1 8.692 1.895 9.982 9.982 0 0 1 3.723 8.091v178.857a99.96 99.96 0 0 1-21.172 61.359 99.705 99.705 0 0 1-54.366 35.359Z" fill="url(#a)"/><defs><linearGradient id="a" x1="0" y1="168.478" x2="239.327" y2="168.478" gradientUnits="userSpaceOnUse"><stop stop-color="#7144C6"/><stop offset=".59" stop-color="#8045C9"/><stop offset="1" stop-color="#8E46CC"/></linearGradient></defs></svg>