<svg width="75" height="72" viewBox="0 0 75 72" fill="none" xmlns="http://www.w3.org/2000/svg"><path d="m73.521 28.5-.1-.27L63.244 1.687A2.64 2.64 0 0 0 62.198.424a2.688 2.688 0 0 0-4.037 1.536L51.292 22.99H23.476L16.608 1.96A2.693 2.693 0 0 0 12.57.424c-.474.3-.84.741-1.047 1.263L1.354 28.235l-.106.264a18.893 18.893 0 0 0 6.268 21.835l.039.029.086.067 15.48 11.602 7.68 5.803 4.666 3.528a3.154 3.154 0 0 0 3.801 0l4.666-3.528 7.68-5.803 15.59-11.67.044-.033A18.892 18.892 0 0 0 73.52 28.5Z" /></svg>